<svg xmlns="http://www.w3.org/2000/svg" 
viewBox="0 0 79.9004 79.9005">
<defs>
<style>.a76fa096-5daf-4a78-87d3-9861e28ba32a{fill:#38b6ff;}.a76fa096-5daf-4a78-87d3-9861e28ba32a,.b89dac68-4e8a-4a1e-b003-b14fb316ea15{fill-rule:evenodd;}.b103ddd6-2b8a-4d0a-9895-d505e200de6b,.b89dac68-4e8a-4a1e-b003-b14fb316ea15{fill:#fff;}</style>
</defs>
    <g id="bf06eedb-e751-4050-bbea-bdb16e2b2a78" data-name="Layer 1">
        <path class="a76fa096-5daf-4a78-87d3-9861e28ba32a" d="M79.9,39.95A39.95,39.95,0,1,1,39.95,0,39.95,39.95,0,0,1,79.9,39.95Z"/>
        <rect class="b103ddd6-2b8a-4d0a-9895-d505e200de6b" x="35.2681" y="32.5031" width="24.538" height="4.2566" rx="0.7915"/>
        <rect class="b103ddd6-2b8a-4d0a-9895-d505e200de6b" x="20.0854" y="43.1408" width="24.538" height="4.2566" rx="0.7915"/>
        <path class="b89dac68-4e8a-4a1e-b003-b14fb316ea15" d="M23.0317,35.4169a.7978.7978,0,0,0,.964-.5421A16.7465,16.7465,0,0,1,43.564,23.6033a.7849.7849,0,0,0,.9193-.5708l.6926-2.5848a.7962.7962,0,0,0-.6019-.9805,21.0045,21.0045,0,0,0-24.6835,14.272.7878.7878,0,0,0,.5564.9852Z"/>
        <path class="b89dac68-4e8a-4a1e-b003-b14fb316ea15" d="M56.8687,44.4835a.7979.7979,0,0,0-.964.5422A16.7465,16.7465,0,0,1,36.3364,56.2972a.7849.7849,0,0,0-.9193.5708l-.6926,2.5848a.7962.7962,0,0,0,.6019.98A21.0045,21.0045,0,0,0,60.01,46.1613a.7878.7878,0,0,0-.5564-.9852Z"/>
        <circle class="b103ddd6-2b8a-4d0a-9895-d505e200de6b" cx="52.0787" cy="25.4956" r="2.3338"/>
        <circle class="b103ddd6-2b8a-4d0a-9895-d505e200de6b" cx="27.8209" cy="54.4049" r="2.3338"/>
    </g>
</svg>